# xmcd
#
# Track frame offsets: 
#        150
#        18943
#        35920
#        51216
#        67679
#        85303
#        101493
#        115289
#        133442
#        149215
#        163612
#        184854
#        203458
#        216315
#        231766
#        248182
#        270755
#        282777
#        294412
#        304629
#
# Disc length: 4203 seconds
#
# Revision: 0
# Processed by: cddbd v1.5.2PL0 Copyright (c) Steve Scherf et al.
# Submitted via: ExactAudioCopyFreeDBPlugin 1.0
#
DISCID=27106914
DTITLE=Various Artist - Acapella Best Of CD2
DYEAR=1900
DGENRE=A Cappella
TTITLE0=Perpetum Jazzile - Africa
TTITLE1=Singer Pur - Every Little Thing She Does Is Magic
TTITLE2=Flying Picket, The - Only You
TTITLE3=Housemartins, The - Caravan Of Love
TTITLE4=Bobby Maferrin - Don't Worry Be Happy (Single Version)
TTITLE5=Basta - Du Tropfst
TTITLE6=Wise Guys - Dumm Gelaufen
TTITLE7=So!... Und Nicht Anders - Wir Brauchen 'nen Hit
TTITLE8=Maybebop - Schwarz Oder Weiß
TTITLE9=U-Bahn Kontrollöre In Tiefgefrohrenen Frauenkleidern - Kaktus
TTITLE10=Naturally 7 - Feel It (In The Air Tonight)
TTITLE11=Bläck Fööss - Good Vibrations (Live)
TTITLE12=Viva Voce Die A Capella Band - It's My Life
TTITLE13=King's Singers, The - Fifty Ways To Leave Your Lover
TTITLE14=6-Zylinder - Weather With You
TTITLE15=Mundwerk - Ober, Zack, 'n Helles (Live)
TTITLE16=Basta - Liechengrand
TTITLE17=Prinzen, Die - Küssen Verboten (A Capella)
TTITLE18=Comedian Harmonists - Ein Freund, Ein Guter Freund
TTITLE19=Michael Von DER Heide - Chant Des Maris
EXTD=
EXTT0=
EXTT1=
EXTT2=
EXTT3=
EXTT4=
EXTT5=
EXTT6=
EXTT7=
EXTT8=
EXTT9=
EXTT10=
EXTT11=
EXTT12=
EXTT13=
EXTT14=
EXTT15=
EXTT16=
EXTT17=
EXTT18=
EXTT19=
PLAYORDER=
